<svg data-v-0dd9719b="" version="1.0" xmlns="http://www.w3.org/2000/svg" xmlns:xlink="http://www.w3.org/1999/xlink" width="100%" height="100%" viewBox="0 0 340.000000 250.000000" preserveAspectRatio="xMidYMid meet" color-interpolation-filters="sRGB" style="margin: auto;"> <rect data-v-0dd9719b="" x="0" y="0" width="100%" height="100%" fill="#fff" fill-opacity="1" class="background"></rect> <rect data-v-0dd9719b="" x="0" y="0" width="100%" height="100%" fill="url(#watermark)" fill-opacity="1" class="watermarklayer"></rect> <g data-v-0dd9719b="" fill="#333" class="icon-text-wrapper icon-svg-group iconsvg" transform="translate(48.38782501220703,92.21383285522461)"><g class="iconsvg-imagesvg" transform="translate(0,0)"><g><rect fill="#333" fill-opacity="0" stroke-width="2" x="0" y="0" width="60" height="65.57233721667286" class="image-rect"></rect> <svg x="0" y="0" width="60" height="65.57233721667286" filtersec="colorsb3526203580" class="image-svg-svg primary" style="overflow: visible;"><svg xmlns="http://www.w3.org/2000/svg" viewBox="-0.000005335050900612259 0 46.28000259399414 50.57786560058594"><path d="M21.22 0v21.66a4.19 4.19 0 0 1-2.11 3.64L.36 36.12A8.52 8.52 0 0 1 0 33.66V16.72a8.48 8.48 0 0 1 1.13-4.23 8.59 8.59 0 0 1 3.11-3.11L18.9.91A8.75 8.75 0 0 1 21.22 0z" fill="#2a3294"></path><path d="M44 39.45A8.7 8.7 0 0 1 42 41l-14.62 8.46a8.6 8.6 0 0 1-8.48 0L4.24 41a8.42 8.42 0 0 1-1.95-1.56L21 28.63a4.17 4.17 0 0 1 4.21 0z" fill="#ff006f"></path><path d="M46.28 16.72v16.94a8.52 8.52 0 0 1-.37 2.46L27.16 25.3a4.23 4.23 0 0 1-2.1-3.65V0a8.89 8.89 0 0 1 2.32.91L42 9.38a8.52 8.52 0 0 1 4.24 7.34z" fill="#0087ff"></path></svg></svg> <!----></g></g> <g transform="translate(67.00000381469727,8.832418441772461)"><g data-gra="path-name" fill-rule="" class="tp-name iconsvg-namesvg" transform="translate(0,0)"><g transform="scale(1)"><g><path d="M29.16 0.25L11.05 0.25Q10.12 0.25 9.54-0.32 8.96-0.9 8.96-1.84L8.96-1.84 8.96-11.48Q6.84-8.68 4.14-6.3L4.14-6.3Q3.02-5.4 2.12-6.37L2.12-6.37Q1.19-7.42 2.41-8.42L2.41-8.42Q5.9-11.41 8.71-15.95L8.71-15.95Q11.23-20.02 12.78-24.73L12.78-24.73 3.92-24.73Q2.63-24.73 2.63-26.06L2.63-26.06Q2.63-27.36 3.92-27.36L3.92-27.36 32.15-27.36Q33.44-27.36 33.44-26.06L33.44-26.06Q33.44-24.73 32.15-24.73L32.15-24.73 15.8-24.73Q14.04-19.73 11.52-15.37L11.52-15.37 29.16-15.37Q30.1-15.37 30.67-14.8 31.25-14.22 31.25-13.28L31.25-13.28 31.25-1.84Q31.25-0.9 30.67-0.32 30.1 0.25 29.16 0.25L29.16 0.25ZM12.35-2.34L12.35-2.34 27.76-2.34Q28.51-2.34 28.51-3.1L28.51-3.1 28.51-12.06Q28.51-12.82 27.76-12.82L27.76-12.82 11.59-12.82 11.59-3.1Q11.59-2.34 12.35-2.34ZM51.16 2.81Q50.8 2.84 50 2.81L50 2.81Q49.57 2.81 49.36 2.81L49.36 2.81Q48.06 2.74 47.77 1.76L47.77 1.76Q47.3 0.22 49.43 0.32L49.43 0.32Q49.86 0.36 50.62 0.36L50.62 0.36Q52.27 0.36 53.06-0.32L53.06-0.32Q54.07-1.08 54.43-2.88L54.43-2.88Q54.79-4.75 54.25-6.98L54.25-6.98Q51.59-4.75 47.84-2.66L47.84-2.66Q44.21-0.61 40.61 0.72L40.61 0.72Q39.56 1.08 38.99 0.14L38.99 0.14Q38.56-0.54 38.74-0.95 38.92-1.37 39.74-1.62L39.74-1.62Q43.52-2.88 47.3-4.97L47.3-4.97Q51.12-7.09 53.46-9.32L53.46-9.32Q53.06-10.3 52.24-11.63L52.24-11.63Q50.22-10.15 47.34-8.57L47.34-8.57Q44.5-7.06 41.87-6.01L41.87-6.01Q40.86-5.62 40.28-6.48L40.28-6.48Q39.82-7.16 39.98-7.54 40.14-7.92 40.93-8.17L40.93-8.17Q43.63-9.07 46.4-10.48L46.4-10.48Q49.25-11.88 51.01-13.25L51.01-13.25Q50.18-14.15 49.36-14.87L49.36-14.87Q45.9-13.1 41.65-11.77L41.65-11.77Q40.68-11.45 40.07-12.28L40.07-12.28Q39.17-13.54 40.79-13.97L40.79-13.97Q47.41-15.8 51.55-18.54L51.55-18.54 45.11-18.54Q43.96-18.54 43.96-19.69 43.96-20.84 45.11-20.84L45.11-20.84 62.71-20.84Q63.86-20.84 63.86-19.69 63.86-18.54 62.71-18.54L62.71-18.54 57.6-18.54Q58.39-15.59 59.87-12.53L59.87-12.53Q63.04-14.51 65.52-16.6L65.52-16.6Q66.35-17.35 67.28-16.52L67.28-16.52Q68.36-15.55 67.28-14.65L67.28-14.65Q64.87-12.82 60.98-10.48L60.98-10.48Q64.08-5.51 68.44-3.17L68.44-3.17Q70.13-2.41 69.08-1.04L69.08-1.04Q68.33-0.04 67.14-0.65L67.14-0.65Q58.61-5.4 55.26-18.54L55.26-18.54 55.19-18.54Q53.6-17.21 51.55-16.02L51.55-16.02Q54.76-13.21 56.23-9.36L56.23-9.36Q57.53-5.9 57.13-2.74L57.13-2.74Q56.74 0.36 54.94 1.62L54.94 1.62Q54.07 2.3 53.21 2.56L53.21 2.56Q52.38 2.81 51.16 2.81L51.16 2.81ZM40.68-19.84L40.68-19.84Q39.38-19.84 39.38-21.13L39.38-21.13 39.38-24.84Q39.38-25.78 39.96-26.35 40.54-26.93 41.47-26.93L41.47-26.93 52.63-26.93 52.63-28.76Q52.63-30.1 53.96-30.1L53.96-30.1Q55.3-30.1 55.3-28.76L55.3-28.76 55.3-26.93 66.74-26.93Q67.68-26.93 68.26-26.35 68.83-25.78 68.83-24.84L68.83-24.84 68.83-21.17Q68.83-19.84 67.5-19.84L67.5-19.84Q66.13-19.84 66.13-21.17L66.13-21.17 66.13-23.69Q66.13-24.44 65.38-24.44L65.38-24.44 42.73-24.44Q41.98-24.44 41.98-23.69L41.98-23.69 41.98-21.13Q41.98-19.84 40.68-19.84ZM76.36 1.4Q75.67 2.77 74.48 1.98L74.48 1.98Q73.44 1.26 74.09 0L74.09 0Q76.61-5.54 76.61-16.2L76.61-16.2 76.61-23.4Q76.61-24.34 77.18-24.91 77.76-25.49 78.7-25.49L78.7-25.49 89.68-25.49 89.68-28.76Q89.68-30.1 91.04-30.1L91.04-30.1Q92.38-30.1 92.38-28.76L92.38-28.76 92.38-25.49 104.76-25.49Q106.02-25.49 106.02-24.23L106.02-24.23Q106.02-22.93 104.76-22.93L104.76-22.93 79.96-22.93Q79.2-22.93 79.2-22.18L79.2-22.18 79.2-16.2Q79.2-4.93 76.36 1.4L76.36 1.4ZM104.8 1.62L81 1.62Q79.74 1.62 79.74 0.36L79.74 0.36Q79.74-0.94 81-0.94L81-0.94 91.44-0.94 91.44-11.77 83.41-11.77Q82.12-11.77 82.12-13.07 82.12-14.36 83.41-14.36L83.41-14.36 91.44-14.36 91.44-20.56Q91.44-21.89 92.81-21.89L92.81-21.89Q94.14-21.89 94.14-20.56L94.14-20.56 94.14-14.36 102.96-14.36Q104.26-14.36 104.26-13.07 104.26-11.77 102.96-11.77L102.96-11.77 94.14-11.77 94.14-0.94 104.8-0.94Q106.06-0.94 106.06 0.36L106.06 0.36Q106.06 1.62 104.8 1.62L104.8 1.62ZM114.34 2.23Q112.72 2.59 112.1 1.73L112.1 1.73Q111.64 1.01 112.18 0.43L112.18 0.43Q112.64-0.04 113.69-0.29L113.69-0.29Q120.92-2.27 123.59-6.91L123.59-6.91 112-6.91Q110.84-6.91 110.84-8.1L110.84-8.1Q110.84-9.25 112-9.25L112-9.25 124.63-9.25Q125.32-11.27 125.68-14.15L125.68-14.15Q125.93-16.31 126.07-20.12L126.07-20.12Q126.14-21.71 127.44-21.71L127.44-21.71Q128.84-21.71 128.77-20.09L128.77-20.09Q128.52-13.18 127.48-9.25L127.48-9.25 140.22-9.25Q141.37-9.25 141.37-8.1L141.37-8.1Q141.37-6.91 140.22-6.91L140.22-6.91 128.48-6.91Q135.22-3.53 139.61 0L139.61 0Q140.11 0.4 140.08 0.83L140.08 0.83Q140.04 1.19 139.54 1.69 139.03 2.2 138.71 2.27L138.71 2.27Q138.31 2.34 137.81 1.94L137.81 1.94Q133.34-1.87 126-5.65L126-5.65Q124.45-2.88 121.75-1.01L121.75-1.01Q118.87 1.01 114.34 2.23L114.34 2.23ZM118.82-10.73Q118.4-10.66 117.9-11.16L117.9-11.16Q117.86-11.2 117.79-11.27L117.79-11.27Q116.89-12.02 116.35-12.42L116.35-12.42Q115.06-13.36 114.37-13.79L114.37-13.79Q113.29-14.44 114.16-15.44L114.16-15.44Q114.84-16.24 115.7-15.73L115.7-15.73Q118.04-14.4 119.7-12.96L119.7-12.96Q120.13-12.56 120.11-12.2 120.1-11.84 119.7-11.38L119.7-11.38Q119.23-10.8 118.82-10.73ZM122.94-16.88Q122-15.84 121.14-16.74L121.14-16.74Q120.74-17.14 119.74-17.93L119.74-17.93Q119.05-18.47 117.9-19.3L117.9-19.3Q116.82-20.02 117.72-20.95L117.72-20.95Q118.4-21.71 119.23-21.2L119.23-21.2Q121.5-19.84 123.01-18.43L123.01-18.43Q123.7-17.75 122.94-16.88L122.94-16.88ZM112.82-18.76L112.82-18.76Q111.53-18.76 111.53-20.05L111.53-20.05 111.53-23.94Q111.53-24.88 112.1-25.45 112.68-26.03 113.62-26.03L113.62-26.03 124.52-26.03 124.52-28.73Q124.52-30.13 125.96-30.13L125.96-30.13Q127.37-30.13 127.37-28.73L127.37-28.73 127.37-26.03 138.46-26.03Q139.39-26.03 139.97-25.45 140.54-24.88 140.54-23.94L140.54-23.94 140.54-20.09Q140.54-18.76 139.21-18.76L139.21-18.76Q137.84-18.76 137.84-20.09L137.84-20.09 137.84-22.75Q137.84-23.51 137.09-23.51L137.09-23.51 114.88-23.51Q114.12-23.51 114.12-22.75L114.12-22.75 114.12-20.05Q114.12-18.76 112.82-18.76ZM166.36 2.7L166.36 2.7Q165.06 2.7 165.06 1.4L165.06 1.4 165.06-7.99Q161.68-2.52 156.46 0.65L156.46 0.65Q155.38 1.19 154.66 0.32L154.66 0.32Q154.15-0.29 154.26-0.72 154.37-1.15 155.09-1.55L155.09-1.55Q157.5-2.92 159.71-5.02 161.93-7.13 163.44-9.54L163.44-9.54 156.64-9.54Q155.45-9.54 155.45-10.76L155.45-10.76Q155.45-11.95 156.64-11.95L156.64-11.95 165.06-11.95 165.06-14.69Q165.06-15.98 166.36-15.98L166.36-15.98Q167.65-15.98 167.65-14.69L167.65-14.69 167.65-11.95 176.72-11.95Q177.91-11.95 177.91-10.76L177.91-10.76Q177.91-9.54 176.72-9.54L176.72-9.54 169.42-9.54Q170.78-7.34 172.8-5.35 174.82-3.35 176.94-2.02L176.94-2.02Q177.77-1.58 177.86-1.12 177.95-0.65 177.37 0.04L177.37 0.04Q176.9 0.54 176.53 0.59 176.15 0.65 175.54 0.29L175.54 0.29Q173.34-1.22 171.25-3.53L171.25-3.53Q169.16-5.83 167.65-8.42L167.65-8.42 167.65 1.4Q167.65 2.7 166.36 2.7ZM149.62 1.12Q148.93 2.3 147.71 1.48L147.71 1.48Q146.63 0.65 147.24-0.32L147.24-0.32Q148.54-2.48 149.58-4.5L149.58-4.5Q150.7-6.62 151.99-9.36L151.99-9.36Q152.57-10.69 153.76-9.72L153.76-9.72Q154.58-9.04 154.19-8.14L154.19-8.14Q151.81-2.99 149.62 1.12L149.62 1.12ZM152.93-15.84Q152.17-14.54 151.09-15.34L151.09-15.34Q150.12-15.95 149.29-16.38L149.29-16.38Q149.08-16.49 148.64-16.7L148.64-16.7Q147.56-17.24 146.99-17.46L146.99-17.46Q145.73-17.96 146.48-19.15L146.48-19.15Q147.06-20.05 148.03-19.73L148.03-19.73Q150.73-18.72 152.75-17.46L152.75-17.46Q153.22-17.14 153.22-16.74L153.22-16.74Q153.25-16.38 152.93-15.84L152.93-15.84ZM158.29-15.55Q156.71-15.12 156.17-16.16L156.17-16.16 156.1-16.24Q155.41-17.03 156.85-17.42L156.85-17.42Q160.09-18.5 161.35-20.59L161.35-20.59Q162.43-22.39 162.65-26.24L162.65-26.24 159.05-26.24Q158.29-26.24 158.29-25.49L158.29-25.49 158.29-23.11Q158.29-21.96 157.14-21.96L157.14-21.96Q155.95-21.96 155.95-23.11L155.95-23.11 155.95-26.46Q155.95-27.4 156.53-27.97 157.1-28.55 158.04-28.55L158.04-28.55 175.57-28.55Q176.51-28.55 177.08-27.97 177.66-27.4 177.66-26.46L177.66-26.46 177.66-23.8Q177.66-22.57 176.44-22.57L176.44-22.57Q175.21-22.57 175.21-23.8L175.21-23.8 175.21-25.49Q175.21-26.24 174.46-26.24L174.46-26.24 170.93-26.24 170.93-19.48Q170.93-18.9 171.11-18.74 171.29-18.58 171.97-18.58L171.97-18.58 175-18.58Q175.5-18.58 175.68-18.94L175.68-18.94Q176-21.31 177.26-20.81L177.26-20.81Q178.09-20.48 177.91-18.76L177.91-18.76Q177.66-17.39 177.05-16.88L177.05-16.88Q176.47-16.38 175.25-16.38L175.25-16.38 171.65-16.38Q169.74-16.38 169.11-16.99 168.48-17.6 168.48-19.44L168.48-19.44 168.48-26.24 165.1-26.24Q164.81-21.71 163.51-19.48L163.51-19.48Q162-16.85 158.29-15.55L158.29-15.55ZM154.44-24.8Q153.54-23.58 152.57-24.48L152.57-24.48Q151.96-25.02 150.8-25.78L150.8-25.78Q149.9-26.39 148.54-27.14L148.54-27.14Q147.35-27.76 148.25-28.87L148.25-28.87Q148.9-29.66 149.8-29.23L149.8-29.23Q152.57-27.86 154.4-26.42L154.4-26.42Q154.84-26.03 154.84-25.67 154.84-25.31 154.44-24.8L154.44-24.8Z" transform="translate(-1.7177209854125977, 30.1299991607666)"></path></g> <!----> <!----> <!----> <!----> <!----> <!----> <!----></g></g> <g data-gra="path-slogan" fill-rule="" class="tp-slogan iconsvg-slogansvg" fill="#333" transform="translate(5,38.95499801635742)"><rect x="0" height="1" y="3.9750003814697266" width="8.791351318359375"></rect> <rect height="1" y="3.9750003814697266" width="8.791351318359375" x="157.43299865722656"></rect> <g transform="translate(11.791351318359375,0)"><g transform="scale(1)"><path d="M7.17-6.09L7.17-6.09L6.09-6.09Q6-7.73 3.94-7.83L3.94-7.83Q2.02-7.78 2.02-6.33L2.02-6.33Q2.02-5.39 3.05-5.25L3.05-5.25L5.48-4.69Q7.41-4.22 7.41-2.34L7.41-2.34Q7.36 0.05 4.03 0.14L4.03 0.14Q2.20 0.14 1.45-0.61L1.45-0.61Q0.52-1.31 0.56-2.77L0.56-2.77L1.69-2.77Q1.73-0.80 4.03-0.75L4.03-0.75Q6.28-0.80 6.33-2.20L6.33-2.20Q6.52-3.38 4.45-3.75L4.45-3.75L2.67-4.13Q0.84-4.64 0.84-6.19L0.84-6.19Q0.98-8.72 3.84-8.81L3.84-8.81Q7.08-8.81 7.17-6.09ZM10.03-5.06L14.53-5.06L14.53-8.58L15.70-8.58L15.70 0L14.53 0L14.53-3.98L10.03-3.98L10.03 0L8.86 0L8.86-8.58L10.03-8.58L10.03-5.06ZM17.67-8.58L18.84-8.58L18.84 0L17.67 0L17.67-8.58ZM20.11-1.92L20.11-2.77L21.19-2.77L21.19-2.16Q21.19-0.75 22.50-0.75L22.50-0.75Q23.86-0.75 23.86-2.25L23.86-2.25L23.86-8.58L25.03-8.58L25.03-2.30Q24.98 0.09 22.55 0.14L22.55 0.14Q20.25 0.09 20.11-1.92L20.11-1.92ZM27-8.58L28.17-8.58L28.17 0L27 0L27-8.58ZM35.81 0L34.97-2.48L31.50-2.48L30.61 0L29.44 0L32.67-8.58L33.98-8.58L37.08 0L35.81 0ZM33.23-7.31L31.88-3.52L34.55-3.52L33.28-7.31L33.23-7.31ZM38.95-1.03L44.25-1.03L44.25 0L37.50 0L37.50-0.94L42.75-7.59L37.88-7.59L37.88-8.58L44.25-8.58L44.25-7.59L38.95-1.03ZM46.55-5.06L51.05-5.06L51.05-8.58L52.22-8.58L52.22 0L51.05 0L51.05-3.98L46.55-3.98L46.55 0L45.38 0L45.38-8.58L46.55-8.58L46.55-5.06ZM59.67-3.19L59.67-8.58L60.84-8.58L60.84-3.05Q60.70 0.05 57.33 0.14L57.33 0.14Q54.19 0.05 54.05-2.86L54.05-2.86L54.05-8.58L55.22-8.58L55.22-3.19Q55.27-0.84 57.38-0.80L57.38-0.80Q59.67-0.84 59.67-3.19L59.67-3.19ZM68.30 0L67.45-2.48L63.98-2.48L63.09 0L61.92 0L65.16-8.58L66.47-8.58L69.56 0L68.30 0ZM65.72-7.31L64.36-3.52L67.03-3.52L65.77-7.31L65.72-7.31ZM72-8.58L76.31-1.64L76.31-8.58L77.44-8.58L77.44 0L76.13 0L71.77-6.94L71.72-6.94L71.72 0L70.59 0L70.59-8.58L72-8.58ZM85.64-3.61L83.02-3.61L83.02-4.59L86.77-4.59L86.77 0L86.02 0L85.73-1.08Q84.75 0.09 82.92 0.14L82.92 0.14Q81.19 0.14 80.25-0.75L80.25-0.75Q78.84-2.06 78.89-4.36L78.89-4.36Q79.22-8.63 82.97-8.81L82.97-8.81Q86.16-8.63 86.63-6L86.63-6L85.50-6Q85.03-7.78 82.92-7.83L82.92-7.83Q80.25-7.64 80.11-4.31L80.11-4.31Q80.11-0.75 82.97-0.75L82.97-0.75Q84-0.75 84.75-1.31L84.75-1.31Q85.69-2.06 85.64-3.61L85.64-3.61ZM98.16-6.09L98.16-6.09L97.08-6.09Q96.98-7.73 94.92-7.83L94.92-7.83Q93-7.78 93-6.33L93-6.33Q93-5.39 94.03-5.25L94.03-5.25L96.47-4.69Q98.39-4.22 98.39-2.34L98.39-2.34Q98.34 0.05 95.02 0.14L95.02 0.14Q93.19 0.14 92.44-0.61L92.44-0.61Q91.50-1.31 91.55-2.77L91.55-2.77L92.67-2.77Q92.72-0.80 95.02-0.75L95.02-0.75Q97.27-0.80 97.31-2.20L97.31-2.20Q97.50-3.38 95.44-3.75L95.44-3.75L93.66-4.13Q91.83-4.64 91.83-6.19L91.83-6.19Q91.97-8.72 94.83-8.81L94.83-8.81Q98.06-8.81 98.16-6.09ZM101.02-5.06L105.52-5.06L105.52-8.58L106.69-8.58L106.69 0L105.52 0L105.52-3.98L101.02-3.98L101.02 0L99.84 0L99.84-8.58L101.02-8.58L101.02-5.06ZM108.66-8.58L109.83-8.58L109.83 0L108.66 0L108.66-8.58ZM118.08-6.09L118.08-6.09L117-6.09Q116.91-7.73 114.84-7.83L114.84-7.83Q112.92-7.78 112.92-6.33L112.92-6.33Q112.92-5.39 113.95-5.25L113.95-5.25L116.39-4.69Q118.31-4.22 118.31-2.34L118.31-2.34Q118.27 0.05 114.94 0.14L114.94 0.14Q113.11 0.14 112.36-0.61L112.36-0.61Q111.42-1.31 111.47-2.77L111.47-2.77L112.59-2.77Q112.64-0.80 114.94-0.75L114.94-0.75Q117.19-0.80 117.23-2.20L117.23-2.20Q117.42-3.38 115.36-3.75L115.36-3.75L113.58-4.13Q111.75-4.64 111.75-6.19L111.75-6.19Q111.89-8.72 114.75-8.81L114.75-8.81Q117.98-8.81 118.08-6.09ZM120.94-5.06L125.44-5.06L125.44-8.58L126.61-8.58L126.61 0L125.44 0L125.44-3.98L120.94-3.98L120.94 0L119.77 0L119.77-8.58L120.94-8.58L120.94-5.06ZM129.70-1.03L134.86-1.03L134.86 0L128.53 0L128.53-8.58L134.77-8.58L134.77-7.59L129.70-7.59L129.70-4.92L134.39-4.92L134.39-3.89L129.70-3.89L129.70-1.03ZM137.77-8.58L142.08-1.64L142.08-8.58L143.20-8.58L143.20 0L141.89 0L137.53-6.94L137.48-6.94L137.48 0L136.36 0L136.36-8.58L137.77-8.58Z" transform="translate(-0.5602678571428572, 8.8125)"></path></g></g></g></g></g><defs v-gra="od"></defs></svg>